<svg width="154" height="40" viewBox="0 0 154 40" fill="none" xmlns="http://www.w3.org/2000/svg">
<path d="M59.68 29.196C58.3173 29.196 57.0853 28.9627 55.984 28.496C54.9013 28.0293 54.0427 27.3573 53.408 26.48C52.7733 25.6027 52.4467 24.5667 52.428 23.372H56.628C56.684 24.1747 56.964 24.8093 57.468 25.276C57.9907 25.7427 58.7 25.976 59.596 25.976C60.5107 25.976 61.2293 25.7613 61.752 25.332C62.2747 24.884 62.536 24.3053 62.536 23.596C62.536 23.0173 62.3587 22.5413 62.004 22.168C61.6493 21.7947 61.2013 21.5053 60.66 21.3C60.1373 21.076 59.4093 20.8333 58.476 20.572C57.2067 20.1987 56.1707 19.8347 55.368 19.48C54.584 19.1067 53.9027 18.556 53.324 17.828C52.764 17.0813 52.484 16.092 52.484 14.86C52.484 13.7027 52.7733 12.6947 53.352 11.836C53.9307 10.9773 54.7427 10.324 55.788 9.876C56.8333 9.40933 58.028 9.176 59.372 9.176C61.388 9.176 63.0213 9.67067 64.272 10.66C65.5413 11.6307 66.2413 12.9933 66.372 14.748H62.06C62.0227 14.076 61.7333 13.5253 61.192 13.096C60.6693 12.648 59.9693 12.424 59.092 12.424C58.3267 12.424 57.7107 12.62 57.244 13.012C56.796 13.404 56.572 13.9733 56.572 14.72C56.572 15.2427 56.74 15.6813 57.076 16.036C57.4307 16.372 57.86 16.652 58.364 16.876C58.8867 17.0813 59.6147 17.324 60.548 17.604C61.8173 17.9773 62.8533 18.3507 63.656 18.724C64.4587 19.0973 65.1493 19.6573 65.728 20.404C66.3067 21.1507 66.596 22.1307 66.596 23.344C66.596 24.3893 66.3253 25.36 65.784 26.256C65.2427 27.152 64.4493 27.8707 63.404 28.412C62.3587 28.9347 61.1173 29.196 59.68 29.196ZM83.5745 20.908C83.5745 21.468 83.5372 21.972 83.4625 22.42H72.1225C72.2158 23.54 72.6078 24.4173 73.2985 25.052C73.9892 25.6867 74.8385 26.004 75.8465 26.004C77.3025 26.004 78.3385 25.3787 78.9545 24.128H83.1825C82.7345 25.6213 81.8758 26.8533 80.6065 27.824C79.3372 28.776 77.7785 29.252 75.9305 29.252C74.4372 29.252 73.0932 28.9253 71.8985 28.272C70.7225 27.6 69.7985 26.6573 69.1265 25.444C68.4732 24.2307 68.1465 22.8307 68.1465 21.244C68.1465 19.6387 68.4732 18.2293 69.1265 17.016C69.7798 15.8027 70.6945 14.8693 71.8705 14.216C73.0465 13.5627 74.3998 13.236 75.9305 13.236C77.4052 13.236 78.7212 13.5533 79.8785 14.188C81.0545 14.8227 81.9598 15.728 82.5945 16.904C83.2478 18.0613 83.5745 19.396 83.5745 20.908ZM79.5145 19.788C79.4958 18.78 79.1318 17.9773 78.4225 17.38C77.7132 16.764 76.8452 16.456 75.8185 16.456C74.8478 16.456 74.0265 16.7547 73.3545 17.352C72.7012 17.9307 72.2998 18.7427 72.1505 19.788H79.5145ZM90.1597 16.708V24.212C90.1597 24.7347 90.2811 25.1173 90.5237 25.36C90.7851 25.584 91.2144 25.696 91.8117 25.696H93.6317V29H91.1677C87.8637 29 86.2117 27.3947 86.2117 24.184V16.708H84.3637V13.488H86.2117V9.652H90.1597V13.488H93.6317V16.708H90.1597ZM97.5992 11.64C96.9086 11.64 96.3299 11.4253 95.8632 10.996C95.4152 10.548 95.1912 9.99733 95.1912 9.344C95.1912 8.69067 95.4152 8.14933 95.8632 7.72C96.3299 7.272 96.9086 7.048 97.5992 7.048C98.2899 7.048 98.8592 7.272 99.3072 7.72C99.7739 8.14933 100.007 8.69067 100.007 9.344C100.007 9.99733 99.7739 10.548 99.3072 10.996C98.8592 11.4253 98.2899 11.64 97.5992 11.64ZM99.5312 13.488V29H95.6112V13.488H99.5312ZM107.128 16.708V24.212C107.128 24.7347 107.25 25.1173 107.492 25.36C107.754 25.584 108.183 25.696 108.78 25.696H110.6V29H108.136C104.832 29 103.18 27.3947 103.18 24.184V16.708H101.332V13.488H103.18V9.652H107.128V13.488H110.6V16.708H107.128ZM116.444 9.456V21.552C116.444 22.8773 116.789 23.8947 117.48 24.604C118.17 25.2947 119.141 25.64 120.392 25.64C121.661 25.64 122.641 25.2947 123.332 24.604C124.022 23.8947 124.368 22.8773 124.368 21.552V9.456H128.316V21.524C128.316 23.1853 127.952 24.5947 127.224 25.752C126.514 26.8907 125.553 27.7493 124.34 28.328C123.145 28.9067 121.81 29.196 120.336 29.196C118.88 29.196 117.554 28.9067 116.36 28.328C115.184 27.7493 114.25 26.8907 113.56 25.752C112.869 24.5947 112.524 23.1853 112.524 21.524V9.456H116.444ZM135.183 15.728C135.687 15.0187 136.378 14.4307 137.255 13.964C138.151 13.4787 139.168 13.236 140.307 13.236C141.632 13.236 142.827 13.5627 143.891 14.216C144.974 14.8693 145.823 15.8027 146.439 17.016C147.074 18.2107 147.391 19.6013 147.391 21.188C147.391 22.7747 147.074 24.184 146.439 25.416C145.823 26.6293 144.974 27.572 143.891 28.244C142.827 28.916 141.632 29.252 140.307 29.252C139.168 29.252 138.16 29.0187 137.283 28.552C136.424 28.0853 135.724 27.4973 135.183 26.788V36.392H131.263V13.488H135.183V15.728ZM143.387 21.188C143.387 20.2547 143.191 19.452 142.799 18.78C142.426 18.0893 141.922 17.5667 141.287 17.212C140.671 16.8573 139.999 16.68 139.271 16.68C138.562 16.68 137.89 16.8667 137.255 17.24C136.639 17.5947 136.135 18.1173 135.743 18.808C135.37 19.4987 135.183 20.3107 135.183 21.244C135.183 22.1773 135.37 22.9893 135.743 23.68C136.135 24.3707 136.639 24.9027 137.255 25.276C137.89 25.6307 138.562 25.808 139.271 25.808C139.999 25.808 140.671 25.6213 141.287 25.248C141.922 24.8747 142.426 24.3427 142.799 23.652C143.191 22.9613 143.387 22.14 143.387 21.188Z" fill="#292930"/>
<path d="M151.136 29.196C150.426 29.196 149.838 28.9813 149.372 28.552C148.924 28.104 148.7 27.5533 148.7 26.9C148.7 26.2467 148.924 25.7053 149.372 25.276C149.838 24.828 150.426 24.604 151.136 24.604C151.826 24.604 152.396 24.828 152.844 25.276C153.292 25.7053 153.516 26.2467 153.516 26.9C153.516 27.5533 153.292 28.104 152.844 28.552C152.396 28.9813 151.826 29.196 151.136 29.196Z" fill="#5956E9"/>
<rect width="40" height="40" rx="11.4286" fill="white"/>
<circle cx="12.8571" cy="12.8572" r="5.71429" fill="#5956E9"/>
<circle cx="12.8571" cy="27.1429" r="5.71429" fill="#FFDEE4"/>
<circle cx="27.1428" cy="12.8572" r="5.71429" fill="#FAB8C4"/>
<circle cx="27.1428" cy="27.1429" r="5.71429" fill="#5956E9"/>
</svg>
