<svg width="145" height="40" viewBox="0 0 145 40" fill="none" xmlns="http://www.w3.org/2000/svg">
<path d="M59.68 29.196C58.3173 29.196 57.0853 28.9627 55.984 28.496C54.9013 28.0293 54.0427 27.3573 53.408 26.48C52.7733 25.6027 52.4467 24.5667 52.428 23.372H56.628C56.684 24.1747 56.964 24.8093 57.468 25.276C57.9907 25.7427 58.7 25.976 59.596 25.976C60.5107 25.976 61.2293 25.7613 61.752 25.332C62.2747 24.884 62.536 24.3053 62.536 23.596C62.536 23.0173 62.3587 22.5413 62.004 22.168C61.6493 21.7947 61.2013 21.5053 60.66 21.3C60.1373 21.076 59.4093 20.8333 58.476 20.572C57.2067 20.1987 56.1707 19.8347 55.368 19.48C54.584 19.1067 53.9027 18.556 53.324 17.828C52.764 17.0813 52.484 16.092 52.484 14.86C52.484 13.7027 52.7733 12.6947 53.352 11.836C53.9307 10.9773 54.7427 10.324 55.788 9.876C56.8333 9.40933 58.028 9.176 59.372 9.176C61.388 9.176 63.0213 9.67067 64.272 10.66C65.5413 11.6307 66.2413 12.9933 66.372 14.748H62.06C62.0227 14.076 61.7333 13.5253 61.192 13.096C60.6693 12.648 59.9693 12.424 59.092 12.424C58.3267 12.424 57.7107 12.62 57.244 13.012C56.796 13.404 56.572 13.9733 56.572 14.72C56.572 15.2427 56.74 15.6813 57.076 16.036C57.4307 16.372 57.86 16.652 58.364 16.876C58.8867 17.0813 59.6147 17.324 60.548 17.604C61.8173 17.9773 62.8533 18.3507 63.656 18.724C64.4587 19.0973 65.1493 19.6573 65.728 20.404C66.3067 21.1507 66.596 22.1307 66.596 23.344C66.596 24.3893 66.3253 25.36 65.784 26.256C65.2427 27.152 64.4493 27.8707 63.404 28.412C62.3587 28.9347 61.1173 29.196 59.68 29.196ZM83.5745 20.908C83.5745 21.468 83.5372 21.972 83.4625 22.42H72.1225C72.2158 23.54 72.6078 24.4173 73.2985 25.052C73.9892 25.6867 74.8385 26.004 75.8465 26.004C77.3025 26.004 78.3385 25.3787 78.9545 24.128H83.1825C82.7345 25.6213 81.8758 26.8533 80.6065 27.824C79.3372 28.776 77.7785 29.252 75.9305 29.252C74.4372 29.252 73.0932 28.9253 71.8985 28.272C70.7225 27.6 69.7985 26.6573 69.1265 25.444C68.4732 24.2307 68.1465 22.8307 68.1465 21.244C68.1465 19.6387 68.4732 18.2293 69.1265 17.016C69.7798 15.8027 70.6945 14.8693 71.8705 14.216C73.0465 13.5627 74.3998 13.236 75.9305 13.236C77.4052 13.236 78.7212 13.5533 79.8785 14.188C81.0545 14.8227 81.9598 15.728 82.5945 16.904C83.2478 18.0613 83.5745 19.396 83.5745 20.908ZM79.5145 19.788C79.4958 18.78 79.1318 17.9773 78.4225 17.38C77.7132 16.764 76.8452 16.456 75.8185 16.456C74.8478 16.456 74.0265 16.7547 73.3545 17.352C72.7012 17.9307 72.2998 18.7427 72.1505 19.788H79.5145ZM87.5837 11.64C86.8931 11.64 86.3144 11.4253 85.8477 10.996C85.3997 10.548 85.1757 9.99733 85.1757 9.344C85.1757 8.69067 85.3997 8.14933 85.8477 7.72C86.3144 7.272 86.8931 7.048 87.5837 7.048C88.2744 7.048 88.8437 7.272 89.2917 7.72C89.7584 8.14933 89.9918 8.69067 89.9918 9.344C89.9918 9.99733 89.7584 10.548 89.2917 10.996C88.8437 11.4253 88.2744 11.64 87.5837 11.64ZM89.5157 13.488V29H85.5957V13.488H89.5157ZM97.1127 16.708V24.212C97.1127 24.7347 97.2341 25.1173 97.4767 25.36C97.7381 25.584 98.1674 25.696 98.7647 25.696H100.585V29H98.1207C94.8167 29 93.1647 27.3947 93.1647 24.184V16.708H91.3167V13.488H93.1647V9.652H97.1127V13.488H100.585V16.708H97.1127ZM106.428 9.456V21.552C106.428 22.8773 106.774 23.8947 107.464 24.604C108.155 25.2947 109.126 25.64 110.376 25.64C111.646 25.64 112.626 25.2947 113.316 24.604C114.007 23.8947 114.352 22.8773 114.352 21.552V9.456H118.3V21.524C118.3 23.1853 117.936 24.5947 117.208 25.752C116.499 26.8907 115.538 27.7493 114.324 28.328C113.13 28.9067 111.795 29.196 110.32 29.196C108.864 29.196 107.539 28.9067 106.344 28.328C105.168 27.7493 104.235 26.8907 103.544 25.752C102.854 24.5947 102.508 23.1853 102.508 21.524V9.456H106.428ZM125.168 15.728C125.672 15.0187 126.362 14.4307 127.24 13.964C128.136 13.4787 129.153 13.236 130.292 13.236C131.617 13.236 132.812 13.5627 133.876 14.216C134.958 14.8693 135.808 15.8027 136.424 17.016C137.058 18.2107 137.376 19.6013 137.376 21.188C137.376 22.7747 137.058 24.184 136.424 25.416C135.808 26.6293 134.958 27.572 133.876 28.244C132.812 28.916 131.617 29.252 130.292 29.252C129.153 29.252 128.145 29.0187 127.268 28.552C126.409 28.0853 125.709 27.4973 125.168 26.788V36.392H121.248V13.488H125.168V15.728ZM133.372 21.188C133.372 20.2547 133.176 19.452 132.784 18.78C132.41 18.0893 131.906 17.5667 131.272 17.212C130.656 16.8573 129.984 16.68 129.256 16.68C128.546 16.68 127.874 16.8667 127.24 17.24C126.624 17.5947 126.12 18.1173 125.728 18.808C125.354 19.4987 125.168 20.3107 125.168 21.244C125.168 22.1773 125.354 22.9893 125.728 23.68C126.12 24.3707 126.624 24.9027 127.24 25.276C127.874 25.6307 128.546 25.808 129.256 25.808C129.984 25.808 130.656 25.6213 131.272 25.248C131.906 24.8747 132.41 24.3427 132.784 23.652C133.176 22.9613 133.372 22.14 133.372 21.188Z" fill="#292930"/>
<path d="M141.12 29.196C140.411 29.196 139.823 28.9813 139.356 28.552C138.908 28.104 138.684 27.5533 138.684 26.9C138.684 26.2467 138.908 25.7053 139.356 25.276C139.823 24.828 140.411 24.604 141.12 24.604C141.811 24.604 142.38 24.828 142.828 25.276C143.276 25.7053 143.5 26.2467 143.5 26.9C143.5 27.5533 143.276 28.104 142.828 28.552C142.38 28.9813 141.811 29.196 141.12 29.196Z" fill="#5956E9"/>
<rect width="40" height="40" rx="11.4286" fill="#5956E9"/>
<circle opacity="0.5" cx="12.8572" cy="12.8571" r="5.71429" fill="white"/>
<circle cx="12.8572" cy="27.1428" r="5.71429" fill="#FFDC60"/>
<circle cx="27.1429" cy="12.8571" r="5.71429" fill="#FAB8C4"/>
<circle opacity="0.5" cx="27.1429" cy="27.1428" r="5.71429" fill="white"/>
</svg>
