<svg width="359" height="710" viewBox="0 0 359 710" fill="none" xmlns="http://www.w3.org/2000/svg">
<rect x="3" y="3" width="353" height="704" rx="45" stroke="#27272E" stroke-width="6"/>
<path d="M139.809 189.196C138.447 189.196 137.215 188.963 136.113 188.496C135.031 188.029 134.172 187.357 133.537 186.48C132.903 185.603 132.576 184.567 132.557 183.372H136.757C136.813 184.175 137.093 184.809 137.597 185.276C138.12 185.743 138.829 185.976 139.725 185.976C140.64 185.976 141.359 185.761 141.881 185.332C142.404 184.884 142.665 184.305 142.665 183.596C142.665 183.017 142.488 182.541 142.133 182.168C141.779 181.795 141.331 181.505 140.789 181.3C140.267 181.076 139.539 180.833 138.605 180.572C137.336 180.199 136.3 179.835 135.497 179.48C134.713 179.107 134.032 178.556 133.453 177.828C132.893 177.081 132.613 176.092 132.613 174.86C132.613 173.703 132.903 172.695 133.481 171.836C134.06 170.977 134.872 170.324 135.917 169.876C136.963 169.409 138.157 169.176 139.501 169.176C141.517 169.176 143.151 169.671 144.401 170.66C145.671 171.631 146.371 172.993 146.501 174.748H142.189C142.152 174.076 141.863 173.525 141.321 173.096C140.799 172.648 140.099 172.424 139.221 172.424C138.456 172.424 137.84 172.62 137.373 173.012C136.925 173.404 136.701 173.973 136.701 174.72C136.701 175.243 136.869 175.681 137.205 176.036C137.56 176.372 137.989 176.652 138.493 176.876C139.016 177.081 139.744 177.324 140.677 177.604C141.947 177.977 142.983 178.351 143.785 178.724C144.588 179.097 145.279 179.657 145.857 180.404C146.436 181.151 146.725 182.131 146.725 183.344C146.725 184.389 146.455 185.36 145.913 186.256C145.372 187.152 144.579 187.871 143.533 188.412C142.488 188.935 141.247 189.196 139.809 189.196ZM163.704 180.908C163.704 181.468 163.667 181.972 163.592 182.42H152.252C152.345 183.54 152.737 184.417 153.428 185.052C154.119 185.687 154.968 186.004 155.976 186.004C157.432 186.004 158.468 185.379 159.084 184.128H163.312C162.864 185.621 162.005 186.853 160.736 187.824C159.467 188.776 157.908 189.252 156.06 189.252C154.567 189.252 153.223 188.925 152.028 188.272C150.852 187.6 149.928 186.657 149.256 185.444C148.603 184.231 148.276 182.831 148.276 181.244C148.276 179.639 148.603 178.229 149.256 177.016C149.909 175.803 150.824 174.869 152 174.216C153.176 173.563 154.529 173.236 156.06 173.236C157.535 173.236 158.851 173.553 160.008 174.188C161.184 174.823 162.089 175.728 162.724 176.904C163.377 178.061 163.704 179.396 163.704 180.908ZM159.644 179.788C159.625 178.78 159.261 177.977 158.552 177.38C157.843 176.764 156.975 176.456 155.948 176.456C154.977 176.456 154.156 176.755 153.484 177.352C152.831 177.931 152.429 178.743 152.28 179.788H159.644ZM170.289 176.708V184.212C170.289 184.735 170.411 185.117 170.653 185.36C170.915 185.584 171.344 185.696 171.941 185.696H173.761V189H171.297C167.993 189 166.341 187.395 166.341 184.184V176.708H164.493V173.488H166.341V169.652H170.289V173.488H173.761V176.708H170.289ZM177.729 171.64C177.038 171.64 176.459 171.425 175.993 170.996C175.545 170.548 175.321 169.997 175.321 169.344C175.321 168.691 175.545 168.149 175.993 167.72C176.459 167.272 177.038 167.048 177.729 167.048C178.419 167.048 178.989 167.272 179.437 167.72C179.903 168.149 180.137 168.691 180.137 169.344C180.137 169.997 179.903 170.548 179.437 170.996C178.989 171.425 178.419 171.64 177.729 171.64ZM179.661 173.488V189H175.741V173.488H179.661ZM187.258 176.708V184.212C187.258 184.735 187.379 185.117 187.622 185.36C187.883 185.584 188.312 185.696 188.91 185.696H190.73V189H188.266C184.962 189 183.31 187.395 183.31 184.184V176.708H181.462V173.488H183.31V169.652H187.258V173.488H190.73V176.708H187.258ZM196.573 169.456V181.552C196.573 182.877 196.918 183.895 197.609 184.604C198.3 185.295 199.27 185.64 200.521 185.64C201.79 185.64 202.77 185.295 203.461 184.604C204.152 183.895 204.497 182.877 204.497 181.552V169.456H208.445V181.524C208.445 183.185 208.081 184.595 207.353 185.752C206.644 186.891 205.682 187.749 204.469 188.328C203.274 188.907 201.94 189.196 200.465 189.196C199.009 189.196 197.684 188.907 196.489 188.328C195.313 187.749 194.38 186.891 193.689 185.752C192.998 184.595 192.653 183.185 192.653 181.524V169.456H196.573ZM215.313 175.728C215.817 175.019 216.507 174.431 217.385 173.964C218.281 173.479 219.298 173.236 220.437 173.236C221.762 173.236 222.957 173.563 224.021 174.216C225.103 174.869 225.953 175.803 226.569 177.016C227.203 178.211 227.521 179.601 227.521 181.188C227.521 182.775 227.203 184.184 226.569 185.416C225.953 186.629 225.103 187.572 224.021 188.244C222.957 188.916 221.762 189.252 220.437 189.252C219.298 189.252 218.29 189.019 217.413 188.552C216.554 188.085 215.854 187.497 215.313 186.788V196.392H211.393V173.488H215.313V175.728ZM223.517 181.188C223.517 180.255 223.321 179.452 222.929 178.78C222.555 178.089 222.051 177.567 221.417 177.212C220.801 176.857 220.129 176.68 219.401 176.68C218.691 176.68 218.019 176.867 217.385 177.24C216.769 177.595 216.265 178.117 215.873 178.808C215.499 179.499 215.313 180.311 215.313 181.244C215.313 182.177 215.499 182.989 215.873 183.68C216.265 184.371 216.769 184.903 217.385 185.276C218.019 185.631 218.691 185.808 219.401 185.808C220.129 185.808 220.801 185.621 221.417 185.248C222.051 184.875 222.555 184.343 222.929 183.652C223.321 182.961 223.517 182.14 223.517 181.188Z" fill="#27272E"/>
<path d="M231.265 189.196C230.556 189.196 229.968 188.981 229.501 188.552C229.053 188.104 228.829 187.553 228.829 186.9C228.829 186.247 229.053 185.705 229.501 185.276C229.968 184.828 230.556 184.604 231.265 184.604C231.956 184.604 232.525 184.828 232.973 185.276C233.421 185.705 233.645 186.247 233.645 186.9C233.645 187.553 233.421 188.104 232.973 188.552C232.525 188.981 231.956 189.196 231.265 189.196Z" fill="#5956E9"/>
<g opacity="0.25" filter="url(#filter0_f_715_10148)">
<rect x="163" y="121" width="34" height="35" rx="8" fill="#999FAE"/>
</g>
<rect x="160" y="110" width="40" height="40" rx="11.4286" fill="white"/>
<circle cx="172.857" cy="122.857" r="5.71429" fill="#5956E9"/>
<circle cx="172.857" cy="137.143" r="5.71429" fill="#FAB8C4"/>
<circle cx="187.143" cy="122.857" r="5.71429" fill="#FAB8C4"/>
<circle cx="187.143" cy="137.143" r="5.71429" fill="#5956E9"/>
<path d="M41.876 289H43.164V278.878H40.532V280.04H41.876V289ZM45.0024 283.834C45.0024 286.774 45.7304 289 48.5304 289C51.3164 289 52.0444 286.774 52.0444 283.834C52.0444 280.936 51.3164 278.724 48.5304 278.724C45.7304 278.724 45.0024 280.936 45.0024 283.834ZM50.7844 283.834C50.7844 286.018 50.5184 287.838 48.5304 287.838C46.5284 287.838 46.2624 286.018 46.2624 283.834C46.2624 281.734 46.5284 279.886 48.5304 279.886C50.5184 279.886 50.7844 281.734 50.7844 283.834ZM53.4434 283.834C53.4434 286.774 54.1714 289 56.9714 289C59.7574 289 60.4854 286.774 60.4854 283.834C60.4854 280.936 59.7574 278.724 56.9714 278.724C54.1714 278.724 53.4434 280.936 53.4434 283.834ZM59.2254 283.834C59.2254 286.018 58.9594 287.838 56.9714 287.838C54.9694 287.838 54.7034 286.018 54.7034 283.834C54.7034 281.734 54.9694 279.886 56.9714 279.886C58.9594 279.886 59.2254 281.734 59.2254 283.834Z" fill="#999FAE"/>
<path d="M42.716 357.736C41.582 358.072 40.84 358.996 40.84 360.27C40.84 362.104 42.282 363.28 44.41 363.28C46.552 363.28 48.008 362.104 48.008 360.27C48.008 359.01 47.266 358.086 46.118 357.736C47.112 357.344 47.742 356.504 47.742 355.412C47.742 353.942 46.608 352.724 44.41 352.724C42.212 352.724 41.092 353.928 41.092 355.412C41.092 356.546 41.68 357.33 42.716 357.736ZM44.41 357.316C43.178 357.316 42.324 356.63 42.324 355.58C42.324 354.39 43.164 353.788 44.41 353.788C45.684 353.788 46.51 354.404 46.51 355.566C46.51 356.616 45.656 357.316 44.41 357.316ZM44.41 358.296C45.74 358.296 46.748 358.926 46.748 360.228C46.748 361.404 45.852 362.216 44.41 362.216C42.968 362.216 42.058 361.418 42.058 360.228C42.058 358.884 43.108 358.296 44.41 358.296ZM49.35 357.834C49.35 360.774 50.078 363 52.878 363C55.664 363 56.392 360.774 56.392 357.834C56.392 354.936 55.664 352.724 52.878 352.724C50.078 352.724 49.35 354.936 49.35 357.834ZM55.132 357.834C55.132 360.018 54.866 361.838 52.878 361.838C50.876 361.838 50.61 360.018 50.61 357.834C50.61 355.734 50.876 353.886 52.878 353.886C54.866 353.886 55.132 355.734 55.132 357.834Z" fill="#999FAE"/>
<path d="M47.686 429.286C47.518 427.872 46.538 426.668 44.606 426.668C42.044 426.668 41.022 428.628 41.022 431.806C41.022 434.872 41.736 437.028 44.732 437.028C46.944 437.028 48.036 435.516 48.036 433.668C48.036 431.54 46.762 430.294 44.872 430.294C43.668 430.294 42.562 430.854 42.128 431.848C42.114 428.838 42.982 427.732 44.592 427.732C45.74 427.732 46.314 428.306 46.51 429.286H47.686ZM44.606 431.372C46.062 431.372 46.804 432.282 46.804 433.71C46.804 435.082 45.978 435.964 44.662 435.964C43.066 435.964 42.282 434.914 42.282 433.57C42.282 432.058 43.444 431.372 44.606 431.372ZM49.4047 431.834C49.4047 434.774 50.1327 437 52.9327 437C55.7187 437 56.4467 434.774 56.4467 431.834C56.4467 428.936 55.7187 426.724 52.9327 426.724C50.1327 426.724 49.4047 428.936 49.4047 431.834ZM55.1867 431.834C55.1867 434.018 54.9207 435.838 52.9327 435.838C50.9307 435.838 50.6647 434.018 50.6647 431.834C50.6647 429.734 50.9307 427.886 52.9327 427.886C54.9207 427.886 55.1867 429.734 55.1867 431.834Z" fill="#999FAE"/>
<path d="M45.74 511H47V508.746H48.4V507.64H47V500.976H45.474L40.56 507.78V508.746H45.74V511ZM42.03 507.64L45.796 502.306V507.64H42.03ZM49.3227 505.834C49.3227 508.774 50.0507 511 52.8507 511C55.6367 511 56.3647 508.774 56.3647 505.834C56.3647 502.936 55.6367 500.724 52.8507 500.724C50.0507 500.724 49.3227 502.936 49.3227 505.834ZM55.1047 505.834C55.1047 508.018 54.8387 509.838 52.8507 509.838C50.8487 509.838 50.5827 508.018 50.5827 505.834C50.5827 503.734 50.8487 501.886 52.8507 501.886C54.8387 501.886 55.1047 503.734 55.1047 505.834Z" fill="#999FAE"/>
<path d="M40.714 584.888H47.448V583.824H42.632C44.438 582.354 47.154 580.212 47.154 577.692C47.154 575.816 45.922 574.696 44.018 574.696C42.198 574.696 40.84 575.816 40.756 577.972H41.988C42.044 576.698 42.716 575.788 44.032 575.788C45.404 575.788 45.894 576.628 45.894 577.748C45.894 579.82 43.374 581.836 40.714 583.978V584.888ZM48.5707 579.834C48.5707 582.774 49.2987 585 52.0987 585C54.8847 585 55.6127 582.774 55.6127 579.834C55.6127 576.936 54.8847 574.724 52.0987 574.724C49.2987 574.724 48.5707 576.936 48.5707 579.834ZM54.3527 579.834C54.3527 582.018 54.0867 583.838 52.0987 583.838C50.0967 583.838 49.8307 582.018 49.8307 579.834C49.8307 577.734 50.0967 575.886 52.0987 575.886C54.0867 575.886 54.3527 577.734 54.3527 579.834Z" fill="#999FAE"/>
<defs>
<filter id="filter0_f_715_10148" x="139" y="97" width="82" height="83" filterUnits="userSpaceOnUse" color-interpolation-filters="sRGB">
<feFlood flood-opacity="0" result="BackgroundImageFix"/>
<feBlend mode="normal" in="SourceGraphic" in2="BackgroundImageFix" result="shape"/>
<feGaussianBlur stdDeviation="12" result="effect1_foregroundBlur_715_10148"/>
</filter>
</defs>
</svg>
